<svg xmlns="http://www.w3.org/2000/svg" width="24" height="24" viewBox="0 0 24 24">
<g>
	<path d="M11.84,0.001C5.213,0.09-0.086,5.535,0.001,12.162c0.088,6.624,5.533,11.926,12.159,11.837
		c6.626-0.089,11.927-5.534,11.838-12.16C23.911,5.214,18.466-0.087,11.84,0.001z M13.17,4c1.22,0,1.58,0.708,1.58,1.517
		c0,1.011-0.81,1.946-2.19,1.946c-1.155,0-1.705-0.582-1.673-1.542C10.886,5.112,11.564,4,13.17,4z M10.043,19.5
		c-0.833,0-1.444-0.505-0.861-2.73l0.957-3.945c0.166-0.632,0.194-0.885,0-0.885c-0.25,0-1.333,0.437-1.972,0.867L7.75,12.123
		c2.027-1.693,4.359-2.687,5.359-2.687c0.833,0,0.972,0.986,0.556,2.503l-1.095,4.148c-0.194,0.733-0.111,0.985,0.083,0.985
		c0.25,0,1.07-0.304,1.875-0.937L15,16.768C13.028,18.741,10.876,19.5,10.043,19.5z"/>
</g>
</svg>
