<svg viewBox="0 0 24 24" xmlns="http://www.w3.org/2000/svg" width="24" height="24">
	<path d="M21.752,8.705c0,0.602,0,1.115,0,1.67c-0.218,0.011-0.409,0.027-0.603,0.027c-2.017,0.001-4.034,0.001-6.053,0
		c-1.031,0-1.495-0.34-1.799-1.313c-0.403-1.292-0.804-2.588-1.253-4.037c-0.322,1.091-0.606,2.041-0.883,2.99
		c-0.676,2.324-0.723,2.36-3.13,2.36c-0.991,0-1.982,0-3.147,0c1.079,0.883,2.025,1.661,2.977,2.434
		c1.225,0.998,1.349,1.395,0.911,2.898c-0.361,1.24-0.715,2.482-1.118,3.888c1.366-1.093,2.604-2.085,3.892-3.115
		c0.36,0.443,0.705,0.867,1.083,1.329c-1.271,1.024-2.511,2.022-3.752,3.021c-0.545,0.439-1.098,0.866-1.632,1.316
		c-0.43,0.364-0.887,0.601-1.407,0.248c-0.526-0.357-0.52-0.896-0.36-1.452c0.551-1.916,1.089-3.838,1.661-5.747
		c0.13-0.436,0.1-0.7-0.291-1.007c-1.417-1.104-2.793-2.262-4.188-3.395c-0.467-0.378-0.912-0.774-0.666-1.455
		C2.232,8.709,2.81,8.699,3.39,8.701c1.718,0.007,3.436-0.017,5.154,0.014C9.026,8.724,9.238,8.594,9.37,8.113
		c0.524-1.903,1.104-3.791,1.649-5.688c0.15-0.529,0.341-1.009,0.986-1.027c0.689-0.02,0.879,0.503,1.042,1.04
		c0.575,1.886,1.168,3.768,1.721,5.662c0.133,0.455,0.316,0.631,0.82,0.621c1.817-0.037,3.636-0.015,5.453-0.015
		C21.259,8.705,21.477,8.705,21.752,8.705z"/>
	<path d="M13.979,14.059c0-0.536,0-1.048,0-1.618c2.51,0,5.026,0,7.581,0c0,0.517,0,1.045,0,1.618
		C19.048,14.059,16.532,14.059,13.979,14.059z"/>
	<path d="M13.976,17.574c0-0.539,0-1.052,0-1.608c2.517,0,5.023,0,7.579,0c0,0.506,0,1.033,0,1.608
		C19.048,17.574,16.527,17.574,13.976,17.574z"/>
</svg>
