<svg xmlns="http://www.w3.org/2000/svg" width="15" height="15" viewBox="0 0 15 15">
<path d="M4.414,1.334c0.225,0.225,0.225,0.589,0,0.814l-1.32,1.32h6.096c2.862,0,5.183,2.321,5.183,5.183
	c0,2.863-2.32,5.183-5.183,5.183H4.583c-0.318,0-0.576-0.257-0.576-0.575c0-0.319,0.257-0.576,0.576-0.576h4.606
	c2.228,0,4.032-1.804,4.032-4.031c0-2.226-1.805-4.03-4.032-4.03H3.094l1.32,1.32c0.225,0.225,0.225,0.589,0,0.814
	s-0.589,0.225-0.814,0L1.297,4.452c-0.225-0.225-0.225-0.589,0-0.814L3.6,1.334C3.825,1.11,4.189,1.11,4.414,1.334z"/>
</svg>
