<svg xmlns="http://www.w3.org/2000/svg" width="60" height="60" xml:space="preserve">
    <path fill="#EAFF56" d="m32.495 2.145 7.444 15.804a1.966 1.966 0 0 0 1.475 1.123l16.645 2.534a2.081 2.081 0 0 1 1.086 3.502l-12.044 12.3a2.107 2.107 0 0 0-.563 1.817l2.844 17.37a1.985 1.985 0 0 1-.74 1.979 1.985 1.985 0 0 1-2.104.186L31.65 50.559a1.884 1.884 0 0 0-1.824 0L14.939 58.76a1.98 1.98 0 0 1-2.843-2.165l2.843-17.37a2.119 2.119 0 0 0-.563-1.817L2.332 25.107a2.08 2.08 0 0 1 1.086-3.502l16.645-2.534a1.971 1.971 0 0 0 1.476-1.123l7.443-15.804a1.92 1.92 0 0 1 3.513.001z" />
    <path fill="#00C6DB" d="M37.391 14.11a60.59 60.59 0 0 0-13.181 9.52 57.288 57.288 0 0 0-10.58 13.771L1.59 25.11a2.077 2.077 0 0 1 1.09-3.5l16.641-2.54a1.997 1.997 0 0 0 1.48-1.12l7.44-15.81a1.926 1.926 0 0 1 3.519 0l5.631 11.97z" />
    <path fill="#FDDC42" d="M46.359 37.41a2.113 2.113 0 0 0-.559 1.82l2.84 17.369a1.982 1.982 0 0 1-.739 1.977 1.98 1.98 0 0 1-2.102.184l-1.75-.96a2.065 2.065 0 0 0 1.091-2.2L42.3 38.23a2.117 2.117 0 0 1 .56-1.82l12.051-12.3a2.123 2.123 0 0 0 .07-2.86l2.34.36a2.08 2.08 0 0 1 1.09 3.5l-12.052 12.3z" />
    <g fill="none" stroke="#000" stroke-linecap="round" stroke-linejoin="round">
        <path stroke-width="2" d="m31.757 2.145 7.444 15.804a1.966 1.966 0 0 0 1.475 1.123l16.645 2.534a2.078 2.078 0 0 1 1.086 3.502l-12.046 12.3a2.113 2.113 0 0 0-.563 1.817l2.843 17.37a1.982 1.982 0 0 1-.739 1.979 1.985 1.985 0 0 1-2.104.186l-14.887-8.201a1.884 1.884 0 0 0-1.824 0L14.201 58.76a1.982 1.982 0 0 1-2.842-2.165l2.843-17.37a2.113 2.113 0 0 0-.563-1.817L1.594 25.107a2.08 2.08 0 0 1 1.086-3.502l16.645-2.534a1.968 1.968 0 0 0 1.475-1.123l7.444-15.804a1.92 1.92 0 0 1 3.513.001z" />
        <path d="M13.63 37.4a57.333 57.333 0 0 1 10.58-13.771 60.59 60.59 0 0 1 13.181-9.52" />
    </g>
</svg>